/vscmnt/brussel_pixiu_data/_data_brussel/112/vsc11236/PredSimResults/SUBJ09mtu3D/worker4.mot
version=1
nRows=11
nColumns=50
inDegrees=yes
endheader
                time	         pelvis_tilt	         pelvis_list	     pelvis_rotation	           pelvis_tx	           pelvis_ty	           pelvis_tz	       hip_flexion_r	     hip_adduction_r	      hip_rotation_r	        knee_angle_r	       ankle_angle_r	         mtp_angle_r	       hip_flexion_l	     hip_adduction_l	      hip_rotation_l	        knee_angle_l	       ankle_angle_l	         mtp_angle_l	    lumbar_extension	      lumbar_bending	     lumbar_rotation	 ercspn_r/activation	 intobl_r/activation	 extobl_r/activation	    abd_r/activation	    add_r/activation	hamstrings_r/activation	bifemsh_r/activation	glut_max_r/activation	iliopsoas_r/activation	rect_fem_r/activation	  vasti_r/activation	gastroc_r/activation	 soleus_r/activation	tib_ant_r/activation	 ercspn_l/activation	 intobl_l/activation	 extobl_l/activation	    abd_l/activation	    add_l/activation	hamstrings_l/activation	bifemsh_l/activation	glut_max_l/activation	iliopsoas_l/activation	rect_fem_l/activation	  vasti_l/activation	gastroc_l/activation	 soleus_l/activation	tib_ant_l/activation	
          1.90499991	         -3.34558230	          1.73521700	         -8.95910767	          2.36219989	          0.98527346	          0.00482130	        -16.64238765	         -3.35785622	         -4.60225188	         -7.56640274	          5.09411120	         35.13732211	         28.99023192	         -1.14517430	         -8.70403492	         -6.89908608	          2.40610940	          0.23547928	        -13.85263874	          0.13340476	          5.22146622	          0.02349681	          0.01000000	          0.01000000	          0.02871964	          0.01203397	          0.02137877	          0.16966942	          0.01344827	          0.01211674	          0.01000001	          0.01000000	          0.40775730	          0.16455087	          0.00999999	          0.03754516	          0.15712975	          0.03673656	          0.00999999	          0.24061792	          0.05007962	          0.20074687	          0.07386153	          0.15505583	          0.01181180	          0.00999999	          0.02678138	          0.01090206	          0.35885150	
          1.91769991	         -3.37728743	          1.80831863	         -8.91630610	          2.38253046	          0.98347442	          0.00409302	        -17.18046812	         -3.64486475	         -5.13140150	         -8.52665668	          3.75091853	         37.00492780	         28.93584366	         -1.00302091	         -8.88250051	         -8.82597703	          2.14121044	          0.20391976	        -13.38011610	         -0.26189842	          5.41805423	          0.01939215	          0.01000000	          0.01000035	          0.02370259	          0.01000000	          0.03007923	          0.14002979	          0.01190214	          0.01000008	          0.01000000	          0.01000001	          0.36900131	          0.13691829	          0.00999999	          0.03098638	          0.12968068	          0.03031903	          0.06156983	          0.19858428	          0.06243174	          0.16567830	          0.11483555	          0.12796905	          0.00999999	          0.00999999	          0.02210293	          0.01211665	          0.39533352	
          1.93039991	         -3.39243073	          1.88537852	         -8.83730139	          2.40314017	          0.98202419	          0.00327350	        -17.47898256	         -3.95997539	         -5.68744270	         -9.95670672	          2.30135089	         38.81347062	         28.76254565	         -0.84548000	         -9.04612098	        -10.57285267	          1.68568366	          0.19389361	        -12.89295822	         -0.66150195	          5.58845884	          0.03648351	          0.00999999	          0.01000000	          0.01956198	          0.01000000	          0.02482468	          0.11556792	          0.00999999	          0.01000021	          0.01000001	          0.01000001	          0.30559358	          0.11299997	          0.00999999	          0.02618648	          0.10702669	          0.02502259	          0.12330634	          0.22108902	          0.05810276	          0.13673588	          0.13460029	          0.10561408	          0.01000000	          0.00999999	          0.01824176	          0.00999999	          0.43137617	
          1.94309991	         -3.39095870	          1.95387482	         -8.72367915	          2.42368405	          0.98108745	          0.00234580	        -17.42598212	         -4.30389680	         -6.25613090	        -12.02107051	          0.77332028	         40.42574066	         28.64193526	         -0.69586313	         -9.19871837	        -12.45004985	          1.32472078	          0.15823474	        -12.43310056	         -1.05105066	          5.73156455	          0.08913539	          0.01000000	          0.01000000	          0.01614468	          0.03398259	          0.02048806	          0.09537930	          0.01000000	          0.01000013	          0.01000001	          0.01000004	          0.25220928	          0.09325995	          0.00999999	          0.04308807	          0.08833015	          0.02065138	          0.18334720	          0.27122627	          0.05237834	          0.11284942	          0.16917357	          0.08716430	          0.01000000	          0.02950365	          0.01505510	          0.01151112	          0.44049443	
          1.95579991	         -3.37331211	          2.01528761	         -8.58252222	          2.44393370	          0.98078643	          0.00132352	        -16.94010716	         -4.69103380	         -6.84745602	        -14.82569394	         -0.83348007	         41.65642895	         28.61974411	         -0.55610884	         -9.30850291	        -14.56151426	          1.31574468	          0.12427685	        -12.02181337	         -1.43308717	          5.84843030	          0.10423802	          0.01000000	          0.01000000	          0.01332436	          0.10156201	          0.01690900	          0.07871745	          0.00999999	          0.02611648	          0.01000000	          0.00999999	          0.20815072	          0.07696832	          0.00999999	          0.03660235	          0.07289971	          0.01704378	          0.20610791	          0.30405132	          0.04933488	          0.09313570	          0.19150150	          0.07193752	          0.01000000	          0.10553912	          0.01242512	          0.01000000	          0.43635718	
          1.96849991	         -3.34225790	          2.05608768	         -8.41322727	          2.46376187	          0.98121318	          0.00023528	        -15.97135174	         -5.12171971	         -7.51838526	        -18.44356852	         -2.42967375	         42.04602599	         28.57880021	         -0.41968646	         -9.36486714	        -16.66486321	          1.58686745	          0.09708146	        -11.67040922	         -1.79348358	          5.93639260	          0.10945967	          0.01000000	          0.01000000	          0.01099672	          0.14534178	          0.01395518	          0.06496627	          0.00999999	          0.02155421	          0.01000000	          0.00999999	          0.17178876	          0.06352269	          0.00999999	          0.03020829	          0.06016482	          0.01406639	          0.20987083	          0.32759749	          0.05212807	          0.07686578	          0.19683064	          0.05937072	          0.01000000	          0.14031106	          0.01025457	          0.01000000	          0.40463179	
          1.98119991	         -3.30000779	          2.06003155	         -8.21222588	          2.48313581	          0.98234995	         -0.00089146	        -14.52387118	         -5.60255057	         -8.27622162	        -22.84603873	         -4.04625168	         41.31280863	         28.41166875	         -0.28610351	         -9.36454695	        -18.56937501	          2.15659188	          0.10842754	        -11.38005627	         -2.11474774	          5.99070620	          0.09678523	          0.00999999	          0.01000000	          0.00999999	          0.21128589	          0.01151747	          0.05361729	          0.00999999	          0.01778891	          0.00999999	          0.00999999	          0.14177890	          0.05242588	          0.03529060	          0.02493119	          0.04965460	          0.01160913	          0.21438325	          0.32659709	          0.05814776	          0.06343806	          0.21092894	          0.04899922	          0.01000000	          0.19118217	          0.01000000	          0.01000000	          0.35680595	
          1.99389991	         -3.24955348	          2.01176148	         -7.97640032	          2.50198918	          0.98414847	         -0.00201258	        -12.63823461	         -6.13414652	         -9.09372622	        -27.91658469	         -5.67791809	         39.16075126	         28.02649206	         -0.15412099	         -9.27832583	        -20.08339026	          2.91872188	          0.24941487	        -11.15562858	         -2.38333894	          6.00442814	          0.08256479	          0.03646871	          0.01000012	          0.00999999	          0.19801983	          0.01823833	          0.04425086	          0.00999999	          0.01468136	          0.00999999	          0.00999999	          0.11701147	          0.04326757	          0.09784103	          0.02057595	          0.04098041	          0.00999999	          0.23305479	          0.26954371	          0.05959561	          0.05235604	          0.17619742	          0.04043952	          0.00999999	          0.22679511	          0.01000000	          0.01000000	          0.30418338	
          2.00659991	         -3.19363496	          1.90769747	         -7.70993973	          2.52020935	          0.98650199	         -0.00309814	        -10.40256019	         -6.70672544	         -9.85910136	        -33.45002515	         -7.12238650	         35.30063684	         27.41694201	         -0.02852906	         -9.09649151	        -21.15871596	          3.74310120	          0.58092101	        -11.00763074	         -2.59403955	          5.97052582	          0.12885346	          0.08395491	          0.08387061	          0.01000000	          0.16342765	          0.01505227	          0.03652066	          0.01000000	          0.01211667	          0.01000002	          0.00999999	          0.09657068	          0.03570914	          0.21197423	          0.01698153	          0.03382152	          0.00999999	          0.19405553	          0.22245702	          0.05994379	          0.04320994	          0.14541741	          0.03337512	          0.01000000	          0.26462460	          0.01000000	          0.01000000	          0.25457546	
          2.01929990	         -3.13340877	          1.76592869	         -7.40595854	          2.53769022	          0.98926680	         -0.00413836	         -7.95294112	         -7.22020546	        -10.34065107	        -39.11084554	         -7.91011398	         30.20509493	         26.62203099	          0.09534120	         -8.85612515	        -21.82972617	          4.53044455	          1.09777659	        -10.94819158	         -2.75814892	          5.87542815	          0.14530284	          0.08908526	          0.12056260	          0.01468135	          0.13487839	          0.01242279	          0.03014112	          0.01000004	          0.01000002	          0.01000001	          0.00999999	          0.07970070	          0.02947109	          0.23168928	          0.01401502	          0.02791323	          0.00999999	          0.16058112	          0.18359596	          0.05226986	          0.03566158	          0.12001438	          0.02754481	          0.01000000	          0.26292439	          0.01000000	          0.01000000	          0.21494768	
          2.03199990	         -3.06920968	          1.61722631	         -7.06240204	          2.55444031	          0.99234348	         -0.00509096	         -5.41757449	         -7.57973014	        -10.50816083	        -44.55517945	         -7.46542694	         25.68121811	         25.69890474	          0.23111166	         -8.57665781	        -22.17772133	          5.19425324	          1.69849168	        -10.97338956	         -2.90898402	          5.71569449	          0.14053086	          0.08972617	          0.12807067	          0.01211666	          0.11131642	          0.01025265	          0.04840808	          0.00999999	          0.01000014	          0.01000002	          0.00999999	          0.06577774	          0.02432277	          0.23836415	          0.01156674	          0.02303705	          0.00999999	          0.13420662	          0.15152580	          0.05589943	          0.02943184	          0.09904902	          0.02273299	          0.01000000	          0.24569760	          0.01000000	          0.01000000	          0.18413505	
